<svg xmlns="http://www.w3.org/2000/svg" viewBox="0 0 512 512" width="512" height="512" role="img" aria-label="Betsaleel Holding monogram">
  <defs>
    <style>
      .gold { fill: #C9A24A; stroke: #C9A24A; }
      .gold-stroke { stroke: #C9A24A; fill: none; }
      .serif { font-family: 'Georgia', 'Times New Roman', serif; }
    </style>
  </defs>
  <g transform="translate(18,18)">
    <circle cx="220" cy="220" r="170" class="gold-stroke" stroke-width="2"/>
    <path d="M78,242 C105,95 225,30 364,88" class="gold-stroke" stroke-width="3"/>
    <path d="M112,300 C155,136 290,82 386,144" class="gold-stroke" stroke-width="2"/>
    <line x1="136" y1="80" x2="136" y2="392" class="gold-stroke" stroke-width="1" opacity="0.7"/>
    <line x1="278" y1="74" x2="278" y2="390" class="gold-stroke" stroke-width="1" opacity="0.7"/>
    <circle cx="84" cy="220" r="7" class="gold"/>
    <circle cx="146" cy="122" r="7" class="gold"/>
    <circle cx="152" cy="220" r="7" class="gold"/>
    <circle cx="232" cy="28" r="7" class="gold"/>
    <circle cx="388" cy="102" r="7" class="gold"/>
    <circle cx="420" cy="164" r="7" class="gold"/>
    <circle cx="300" cy="438" r="7" class="gold"/>
    <circle cx="146" cy="312" r="7" class="gold"/>
    <line x1="84" y1="220" x2="152" y2="220" class="gold-stroke" stroke-width="2"/>
    <line x1="84" y1="220" x2="146" y2="312" class="gold-stroke" stroke-width="2"/>
    <line x1="152" y1="220" x2="146" y2="122" class="gold-stroke" stroke-width="2"/>
    <line x1="146" y1="312" x2="300" y2="438" class="gold-stroke" stroke-width="2"/>
    <line x1="146" y1="122" x2="232" y2="28" class="gold-stroke" stroke-width="2"/>
    <text x="160" y="292" font-size="250" class="serif gold">B</text>
    <text x="280" y="355" font-size="210" class="serif gold">H</text>
  </g>
</svg>
