<svg xmlns="http://www.w3.org/2000/svg" viewBox="0 0 1800 340" width="1800" height="340" role="img" aria-label="Betsaleel Holding logo horizontal">
  <defs>
    <style>
      .ivory { fill: #F6F0E2; }
      .gold { fill: #C9A24A; stroke: #C9A24A; }
      .gold-stroke { stroke: #C9A24A; fill: none; }
      .gold-stroke2 { stroke: #E4C879; fill: none; }
      .serif { font-family: 'Georgia', 'Times New Roman', serif; }
      .italic { font-family: 'Georgia', 'Times New Roman', serif; font-style: italic; }
    </style>
  </defs>
  <g transform="translate(40,20)">
    <g transform="translate(0,0)">
      <circle cx="150" cy="150" r="110" class="gold-stroke" stroke-width="1.5"/>
      <path d="M55,165 C75,60 160,10 255,60" class="gold-stroke" stroke-width="2"/>
      <path d="M80,200 C110,95 220,55 280,100" class="gold-stroke" stroke-width="1.5"/>
      <line x1="95" y1="55" x2="95" y2="265" class="gold-stroke" stroke-width="0.8" opacity="0.6"/>
      <line x1="200" y1="50" x2="200" y2="260" class="gold-stroke" stroke-width="0.8" opacity="0.6"/>
      <circle cx="70" cy="160" r="4" class="gold"/>
      <circle cx="110" cy="90" r="4" class="gold"/>
      <circle cx="115" cy="160" r="4" class="gold"/>
      <circle cx="155" cy="22" r="4" class="gold"/>
      <circle cx="280" cy="72" r="4" class="gold"/>
      <circle cx="300" cy="115" r="4" class="gold"/>
      <circle cx="265" cy="260" r="4" class="gold"/>
      <circle cx="110" cy="200" r="4" class="gold"/>
      <line x1="70" y1="160" x2="115" y2="160" class="gold-stroke" stroke-width="1"/>
      <line x1="70" y1="160" x2="110" y2="200" class="gold-stroke" stroke-width="1"/>
      <line x1="115" y1="160" x2="110" y2="90" class="gold-stroke" stroke-width="1"/>
      <line x1="110" y1="200" x2="265" y2="260" class="gold-stroke" stroke-width="1"/>
      <line x1="110" y1="90" x2="155" y2="22" class="gold-stroke" stroke-width="1"/>
      <line x1="115" y1="160" x2="300" y2="115" class="gold-stroke" stroke-width="0" opacity="0"/>
      <text x="125" y="205" font-size="170" class="serif gold">B</text>
      <text x="205" y="250" font-size="145" class="serif gold">H</text>
    </g>
    <line x1="395" y1="40" x2="395" y2="260" class="gold-stroke" stroke-width="3"/>
    <g transform="translate(470,0)">
      <text x="0" y="145" font-size="90" letter-spacing="18" class="serif ivory">BETSALEEL</text>
      <line x1="6" y1="196" x2="305" y2="196" class="gold-stroke" stroke-width="2"/>
      <text x="350" y="208" font-size="44" letter-spacing="12" class="serif gold">HOLDING</text>
      <line x1="740" y1="196" x2="1030" y2="196" class="gold-stroke" stroke-width="2"/>
      <text x="310" y="270" font-size="38" class="italic ivory">Fonder. Diriger. Impacter.</text>
    </g>
  </g>
</svg>
